<?xml version="1.0" standalone="no"?>
<svg viewBox="0 0 200 200" xmlns="http://www.w3.org/2000/svg">
  <path fill="#E8DAFF" d="M30.3,-49.1C40.9,-40.3,52.4,-34.7,56.2,-25.8C60.1,-16.9,56.4,-4.7,54.9,8.1C53.3,20.8,53.9,34,48.3,43.6C42.7,53.1,30.9,59,17.8,64.6C4.8,70.2,-9.5,75.5,-25.2,75.6C-40.9,75.6,-58,70.4,-68,58.9C-78,47.4,-80.8,29.7,-77.4,14.7C-74,-0.3,-64.4,-12.6,-55.5,-22.6C-46.7,-32.6,-38.7,-40.2,-29.6,-49.7C-20.5,-59.2,-10.2,-70.6,-0.2,-70.3C9.8,-70,19.7,-57.9,30.3,-49.1Z" transform="translate(100 100)" />
</svg>
