<?xml version="1.0" encoding="UTF-8"?>
<!DOCTYPE svg PUBLIC "-//W3C//DTD SVG 1.1//EN" "http://www.w3.org/Graphics/SVG/1.1/DTD/svg11.dtd">
<!-- Creator: CorelDRAW 2021 (64-Bit) -->
<svg xmlns="http://www.w3.org/2000/svg" xml:space="preserve" width="100%" height="100%" version="1.1" style="shape-rendering:geometricPrecision; text-rendering:geometricPrecision; image-rendering:optimizeQuality; fill-rule:evenodd; clip-rule:evenodd"
viewBox="0 0 18801.69 7133.43"
 xmlns:xlink="http://www.w3.org/1999/xlink"
 xmlns:xodm="http://www.corel.com/coreldraw/odm/2003">
 <defs>
  <style type="text/css">
   <![CDATA[
    .fil0 {fill:gray}
    .fil1 {fill:#B3B3B3}
    .fil2 {fill:#E6E6E6}
   ]]>
  </style>
 </defs>
 <g id="Capa_x0020_1">
  <metadata id="CorelCorpID_0Corel-Layer"/>
  <path class="fil0" d="M6267.23 4597.1l-79.33 0 0 158.52 -79.33 0 0 158.52 -79.34 0 0 79.26 -79.33 0 0 79.26 -158.66 0 0 79.26 -79.33 0 0 79.26 -158.67 0 0 79.26 -317.33 0 0 79.26 -237.99 0 0 -79.26 -317.33 0 0 -79.26 -158.66 0 0 -79.26 -79.34 0 0 -79.26 -79.33 0 0 -158.52 -79.33 0 0 -158.52 -79.33 0 0 -554.82 79.33 0 0 -237.78 79.33 0 0 -158.52 79.33 0 0 -79.26 79.34 0 0 -79.26 79.33 0 0 -79.26 79.33 0 0 -79.27 79.33 0 0 -79.26 158.67 0 0 -79.26 79.33 0 0 -79.26 396.66 0 0 -79.26 158.66 0 0 79.26 317.33 0 0 79.26 158.66 0 0 79.26 79.34 0 0 79.26 79.33 0 0 158.53 79.33 0 0 158.52 79.33 0 0 634.08 -79.33 0 0 158.52zm9519.84 -317.04l-79.33 0 0 158.52 -79.33 0 0 79.26 -79.33 0 0 158.52 -158.67 0 0 79.26 -79.33 0 0 79.26 -158.66 0 0 79.26 -238 0 0 79.26 -475.99 0 0 -79.26 -238 0 0 -79.26 -79.33 0 0 -79.26 -79.33 0 0 -79.26 -79.33 0 0 -158.52 -79.34 0 0 -158.52 -79.33 0 0 -396.3 79.33 0 0 -237.78 79.34 0 0 -158.52 79.33 0 0 -158.53 79.33 0 0 -79.26 79.33 0 0 -79.26 79.33 0 0 -79.26 158.67 0 0 -79.26 158.66 0 0 -79.26 238 0 0 -79.26 317.33 0 0 79.26 317.32 0 0 79.26 79.34 0 0 79.26 79.33 0 0 79.26 79.33 0 0 79.26 79.33 0 0 158.52 79.34 0 0 634.09 -79.34 0 0 158.52zm-2062.63 -871.87l-79.33 0 0 79.26 -79.33 0 0 237.79 -79.34 0 0 317.04 -79.33 0 0 79.26 79.33 0 0 396.3 79.34 0 0 237.78 79.33 0 0 79.26 79.33 0 0 79.26 79.33 0 0 79.26 79.33 0 0 79.26 79.34 0 0 79.26 79.33 0 0 79.26 79.33 0 0 79.26 79.33 0 0 79.26 -158.66 0 0 -79.26 -555.33 0 0 -79.26 -79.33 0 0 -158.52 -79.33 0 0 -554.82 -79.33 0 0 -475.56 -79.33 0 0 -317.04 -79.34 0 0 158.52 -79.33 0 0 237.78 -79.33 0 0 158.52 -79.33 0 0 237.78 -79.33 0 0 -158.52 -79.34 0 0 -158.52 -79.33 0 0 -158.52 -79.33 0 0 -158.52 -79.33 0 0 -237.78 -79.33 0 0 -79.26 -79.34 0 0 158.52 -79.33 0 0 475.56 -79.33 0 0 475.56 -79.33 0 0 79.26 -79.33 0 0 -79.26 -396.66 0 0 -79.26 -238 0 0 -79.26 79.33 0 0 -475.56 79.33 0 0 -158.52 79.34 0 0 -79.26 79.33 0 0 -79.26 79.33 0 0 -79.26 79.33 0 0 -79.26 -79.33 0 0 -79.27 -79.33 0 0 -79.26 -79.33 0 0 -317.04 79.33 0 0 -475.56 79.33 0 0 -475.56 79.33 0 0 -317.04 793.32 0 0 396.3 79.33 0 0 396.3 79.34 0 0 317.04 79.33 0 0 -237.78 79.33 0 0 -475.56 79.33 0 0 -396.3 79.33 0 0 -158.52 555.33 0 0 554.82 79.33 0 0 475.56 79.33 0 0 554.82 -79.33 0 0 158.52zm-13010.45 -1030.38l79.33 0 0 -79.26 158.66 0 0 -79.26 158.67 0 0 -79.26 158.66 0 0 -79.26 238 0 0 -79.26 237.99 0 0 -79.26 317.33 0 0 -79.26 634.66 0 0 -79.26 79.33 0 0 79.26 555.33 0 0 79.26 237.99 0 0 79.26 158.67 0 0 79.26 79.33 0 0 79.26 79.33 0 0 79.26 79.33 0 0 79.26 79.33 0 0 79.26 79.34 0 0 158.52 79.33 0 0 713.34 -79.33 0 0 158.52 -79.34 0 0 158.53 -79.33 0 0 158.52 -79.33 0 0 79.26 -79.33 0 0 79.26 -79.33 0 0 79.26 -79.34 0 0 79.26 -79.33 0 0 79.26 -79.33 0 0 79.26 -79.33 0 0 79.26 -79.33 0 0 79.26 -158.67 0 0 237.78 79.33 0 0 317.04 79.34 0 0 317.04 79.33 0 0 317.04 79.33 0 0 317.04 79.33 0 0 237.79 -237.99 0 0 79.26 -317.33 0 0 79.26 -79.34 0 0 -158.52 -79.33 0 0 -158.52 -79.33 0 0 -158.53 -79.33 0 0 -237.78 -79.33 0 0 -158.52 -79.34 0 0 -158.52 -79.33 0 0 -158.52 -79.33 0 0 -158.52 -79.33 0 0 -237.78 -79.33 0 0 -158.52 -79.34 0 0 -158.52 -79.33 0 0 -158.52 -79.33 0 0 -237.78 -79.33 0 0 -158.52 -79.33 0 0 -158.52 -79.34 0 0 -158.53 -79.33 0 0 -237.78 -79.33 0 0 -158.52 -238 0 0 79.26 -237.99 0 0 -79.26 -79.33 0 0 -158.52 -79.34 0 0 -158.52 -79.33 0 0 -79.26 -79.33 0 0 -158.52 -79.33 0 0 -158.52zm10154.5 158.52l-79.33 0 0 79.26 -79.34 0 0 79.26 -79.33 0 0 79.26 -79.33 0 0 79.26 -79.33 0 0 79.26 -79.33 0 0 158.52 -79.34 0 0 79.26 -79.33 0 0 79.26 -79.33 0 0 79.26 -79.33 0 0 79.26 -79.33 0 0 79.26 -79.34 0 0 79.27 317.33 0 0 -79.27 158.67 0 0 -79.26 158.66 0 0 -79.26 79.33 0 0 -79.26 79.33 0 0 -79.26 79.34 0 0 79.26 79.33 0 0 79.26 79.33 0 0 79.26 79.33 0 0 79.26 79.33 0 0 79.27 79.34 0 0 158.52 -79.34 0 0 79.26 -79.33 0 0 79.26 -158.66 0 0 79.26 -158.67 0 0 79.26 -158.66 0 0 79.26 -238 0 0 79.26 -872.65 0 0 -79.26 -158.66 0 0 -79.26 -158.67 0 0 -79.26 -79.33 0 0 -79.26 -79.33 0 0 -79.26 -79.33 0 0 -158.52 -79.34 0 0 -79.26 -79.33 0 0 -713.35 79.33 0 0 -237.78 79.34 0 0 -158.52 79.33 0 0 -79.26 79.33 0 0 -79.26 158.66 0 0 -79.26 79.34 0 0 -79.26 237.99 0 0 -79.26 238 0 0 -79.26 555.32 0 0 79.26 238 0 0 79.26 158.66 0 0 79.26 158.67 0 0 79.26 79.33 0 0 158.52 -79.33 0 0 79.26zm4839.25 -475.56l317.33 0 0 79.26 396.66 0 0 79.26 317.33 0 0 158.52 79.33 0 0 396.3 79.33 0 0 396.3 79.33 0 0 396.31 79.34 0 0 317.04 79.33 0 0 158.52 79.33 0 0 -317.04 79.33 0 0 -317.05 79.33 0 0 -317.04 79.34 0 0 -317.04 79.33 0 0 -317.04 317.33 0 0 79.26 317.32 0 0 79.26 158.67 0 0 158.52 -79.33 0 0 237.78 -79.34 0 0 237.78 -79.33 0 0 237.78 -79.33 0 0 237.79 -79.33 0 0 237.78 -79.33 0 0 237.78 -79.34 0 0 237.78 -79.33 0 0 237.78 -79.33 0 0 317.04 -79.33 0 0 237.78 -79.33 0 0 237.78 -79.34 0 0 237.78 -79.33 0 0 237.79 -79.33 0 0 237.78 -158.66 0 0 -79.26 -317.33 0 0 -79.26 -79.33 0 0 -554.83 -79.34 0 0 -1664.46 -79.33 0 0 237.78 -79.33 0 0 475.56 -79.33 0 0 475.56 -79.33 0 0 396.3 -79.34 0 0 79.26 -396.66 0 0 -79.26 -158.66 0 0 -317.04 79.33 0 0 -158.52 79.33 0 0 -158.52 79.34 0 0 -79.26 79.33 0 0 -79.26 79.33 0 0 -158.52 79.33 0 0 -158.52 79.33 0 0 -317.04 79.34 0 0 -237.78 -79.34 0 0 -396.31 -79.33 0 0 -158.52 -79.33 0 0 -79.26 -79.33 0 0 -79.26 -79.33 0 0 -475.56 79.33 0 0 -237.78 -238 0 0 -237.78zm-9519.84 79.26l-238 0 0 -158.52 79.33 0 0 -79.26 238 0 0 -79.26 317.33 0 0 -79.26 237.99 0 0 -79.26 158.67 0 0 1109.64 79.33 0 0 -79.26 79.33 0 0 -158.52 79.33 0 0 -79.26 79.34 0 0 -79.26 79.33 0 0 -158.52 79.33 0 0 -79.26 79.33 0 0 -158.52 79.33 0 0 -79.26 79.34 0 0 -158.52 79.33 0 0 -79.26 79.33 0 0 79.26 79.33 0 0 79.26 79.33 0 0 79.26 79.34 0 0 79.26 79.33 0 0 79.26 79.33 0 0 79.26 158.66 0 0 79.26 79.34 0 0 237.78 -79.34 0 0 79.26 -79.33 0 0 79.26 -79.33 0 0 79.26 -79.33 0 0 79.26 -79.33 0 0 79.26 -79.34 0 0 79.26 -79.33 0 0 79.26 -79.33 0 0 79.26 -79.33 0 0 79.26 -79.33 0 0 79.26 -79.34 0 0 79.26 -79.33 0 0 79.26 -79.33 0 0 79.26 158.66 0 0 79.27 238 0 0 79.26 158.66 0 0 79.26 238 0 0 79.26 158.66 0 0 79.26 158.67 0 0 158.52 79.33 0 0 79.26 79.33 0 0 79.26 79.33 0 0 79.26 79.34 0 0 79.26 79.33 0 0 79.26 237.99 0 0 79.26 158.67 0 0 79.26 317.33 0 0 634.08 -158.67 0 0 -79.26 -158.66 0 0 -79.26 -158.67 0 0 -79.26 -158.66 0 0 -79.26 -158.66 0 0 -79.26 -79.34 0 0 -79.26 -158.66 0 0 -79.26 -158.66 0 0 -79.26 -158.67 0 0 -79.26 -158.66 0 0 -79.26 -158.67 0 0 -79.26 -158.66 0 0 -79.26 -158.66 0 0 -79.26 -158.67 0 0 -79.26 -158.66 0 0 -79.26 -158.67 0 0 -79.26 -79.33 0 0 1347.42 -237.99 0 0 79.26 -317.33 0 0 -79.26 -79.33 0 0 -475.56 79.33 0 0 -158.52 79.33 0 0 -317.04 79.33 0 0 -396.3 -79.33 0 0 -317.04 -79.33 0 0 -158.53 -79.33 0 0 -79.26 -79.34 0 0 -158.52 -79.33 0 0 -713.34 -79.33 0 0 -475.56 -79.33 0 0 79.26zm4283.93 -1030.39l-158.67 0 0 79.27 -158.66 0 0 79.26 -158.66 0 0 79.26 -158.67 0 0 79.26 -237.99 0 0 -79.26 79.33 0 0 -79.26 79.33 0 0 -79.26 79.33 0 0 -79.27 79.33 0 0 -158.52 79.34 0 0 -79.26 79.33 0 0 -79.26 79.33 0 0 -79.26 79.33 0 0 -79.26 79.33 0 0 -79.26 79.34 0 0 79.26 79.33 0 0 158.52 79.33 0 0 79.26 79.33 0 0 158.52 -158.66 0 0 79.26zm-10233.83 1426.69l79.33 0 0 158.52 79.33 0 0 79.26 79.33 0 0 158.52 79.33 0 0 158.52 79.34 0 0 79.26 79.33 0 0 158.52 79.33 0 0 158.52 79.33 0 0 79.27 79.33 0 0 158.52 238 0 0 -79.26 158.66 0 0 79.26 79.34 0 0 237.78 79.33 0 0 158.52 79.33 0 0 158.52 79.33 0 0 158.52 79.33 0 0 237.78 79.34 0 0 158.52 79.33 0 0 158.52 79.33 0 0 158.52 79.33 0 0 237.78 79.33 0 0 158.52 79.34 0 0 158.52 79.33 0 0 158.52 79.33 0 0 158.53 79.33 0 0 237.78 79.33 0 0 158.52 79.34 0 0 158.52 79.33 0 0 158.52 237.99 0 0 -79.26 238 0 0 -79.26 238 0 0 -79.26 237.99 0 0 -79.26 238 0 0 -79.26 158.66 0 0 -317.04 -79.33 0 0 -317.05 -79.33 0 0 -317.04 -79.33 0 0 -317.04 -79.33 0 0 -237.78 -79.34 0 0 -317.04 79.34 0 0 -79.26 79.33 0 0 158.52 79.33 0 0 317.04 79.33 0 0 158.52 79.33 0 0 158.52 79.34 0 0 79.26 79.33 0 0 79.26 79.33 0 0 79.26 79.33 0 0 79.26 158.67 0 0 79.26 158.66 0 0 79.26 396.66 0 0 79.26 79.33 0 0 -79.26 396.66 0 0 -79.26 238 0 0 -79.26 158.66 0 0 -79.26 79.33 0 0 -79.26 79.34 0 0 -79.26 79.33 0 0 554.82 237.99 0 0 -79.26 555.33 0 0 -79.26 555.32 0 0 -1030.38 158.67 0 0 79.26 158.66 0 0 79.26 158.66 0 0 79.26 158.67 0 0 79.26 158.66 0 0 79.26 238 0 0 79.26 158.66 0 0 79.26 158.67 0 0 79.26 158.66 0 0 79.26 158.66 0 0 79.26 158.67 0 0 79.26 158.66 0 0 79.26 158.67 0 0 79.26 158.66 0 0 79.26 158.67 0 0 79.26 79.33 0 0 -1268.16 317.33 0 0 -79.26 237.99 0 0 -79.26 158.67 0 0 -79.26 158.66 0 0 -79.26 79.33 0 0 158.52 -79.33 0 0 396.3 -79.33 0 0 79.26 158.66 0 0 79.26 475.99 0 0 79.26 555.33 0 0 79.26 237.99 0 0 158.52 79.34 0 0 158.52 79.33 0 0 79.26 79.33 0 0 79.26 79.33 0 0 -158.52 79.33 0 0 -158.52 79.34 0 0 -79.26 79.33 0 0 -158.52 79.33 0 0 79.26 79.33 0 0 475.56 475.99 0 0 79.26 396.66 0 0 79.26 476 0 0 79.26 317.32 0 0 -79.26 -79.33 0 0 -475.56 555.33 0 0 -79.26 158.66 0 0 79.26 -79.33 0 0 475.56 555.32 0 0 79.26 476 0 0 475.57 237.99 0 0 79.26 238 0 0 79.26 237.99 0 0 79.26 317.33 0 0 79.26 158.67 0 0 -237.78 79.33 0 0 -237.78 79.33 0 0 -237.78 79.33 0 0 -237.79 79.33 0 0 -237.78 79.34 0 0 -237.78 79.33 0 0 -237.78 79.33 0 0 -237.78 79.33 0 0 -237.78 79.33 0 0 -237.78 79.34 0 0 -237.78 79.33 0 0 -237.78 79.33 0 0 -237.78 79.33 0 0 -237.79 79.33 0 0 -237.78 79.34 0 0 -237.78 79.33 0 0 -237.78 79.33 0 0 -317.04 -317.33 0 0 -79.26 -317.33 0 0 -79.26 -396.66 0 0 -79.26 -317.32 0 0 -79.26 -158.67 0 0 237.78 -79.33 0 0 79.26 -79.33 0 0 -396.3 -317.33 0 0 -79.26 -396.66 0 0 -79.26 -317.33 0 0 -79.26 -396.66 0 0 -79.26 -396.66 0 0 317.04 -79.33 0 0 -79.26 -158.67 0 0 792.6 -475.99 0 0 79.26 -237.99 0 0 79.26 -79.34 0 0 79.26 -79.33 0 0 -158.52 -79.33 0 0 -475.56 -79.33 0 0 -475.56 -79.33 0 0 -475.56 -1269.32 0 0 158.52 -1189.98 0 0 79.26 -79.33 0 0 237.78 -158.66 0 0 317.04 -79.33 0 0 -79.26 -79.34 0 0 -79.26 -158.66 0 0 -79.26 -79.33 0 0 -79.26 -158.67 0 0 -79.26 -158.66 0 0 -79.26 158.66 0 0 -79.26 158.67 0 0 -79.26 79.33 0 0 -79.26 -79.33 0 0 -158.52 158.66 0 0 -79.27 158.67 0 0 -79.26 -79.34 0 0 -79.26 -79.33 0 0 -158.52 -79.33 0 0 -79.26 -79.33 0 0 -158.52 -79.33 0 0 -79.26 -79.34 0 0 -158.52 -79.33 0 0 -79.26 -79.33 0 0 -158.52 -79.33 0 0 -79.26 -158.67 0 0 79.26 -79.33 0 0 79.26 -79.33 0 0 158.52 -79.33 0 0 79.26 -79.33 0 0 79.26 -79.34 0 0 79.26 -79.33 0 0 79.26 -79.33 0 0 79.26 -79.33 0 0 79.26 -79.33 0 0 158.52 -79.34 0 0 79.26 -79.33 0 0 79.26 -79.33 0 0 79.27 -79.33 0 0 79.26 -79.34 0 0 79.26 -79.33 0 0 79.26 -79.33 0 0 79.26 79.33 0 0 79.26 -79.33 0 0 79.26 -79.33 0 0 79.26 -79.33 0 0 158.52 79.33 0 0 79.26 -317.33 0 0 -79.26 -79.33 0 0 -79.26 -79.33 0 0 -79.26 -79.34 0 0 -79.26 -79.33 0 0 -79.26 -79.33 0 0 -79.26 -79.33 0 0 -79.26 -79.33 0 0 -79.26 -158.67 0 0 -79.26 -79.33 0 0 -79.26 -79.33 0 0 -158.53 -79.33 0 0 79.26 -79.34 0 0 158.53 -79.33 0 0 158.52 -79.33 0 0 158.52 -79.33 0 0 -475.57 -238 0 0 79.27 -237.99 0 0 79.26 -238 0 0 79.26 -238 0 0 79.26 -237.99 0 0 79.26 -238 0 0 79.26 -237.99 0 0 79.26 -158.67 0 0 634.08 79.33 0 0 396.3 79.34 0 0 -79.26 237.99 0 0 317.04 -158.66 0 0 -79.26 -634.66 0 0 79.26 -237.99 0 0 79.26 -158.67 0 0 79.26 -158.66 0 0 -634.08 -79.33 0 0 -158.52 -79.34 0 0 -158.52 -79.33 0 0 -79.26 -79.33 0 0 -158.52 -158.66 0 0 -79.26 -79.34 0 0 -79.26 -79.33 0 0 -79.26 -158.66 0 0 -79.26 -158.67 0 0 -79.26 -158.66 0 0 -79.26 -475.99 0 0 -79.26 -555.33 0 0 79.26 -555.32 0 0 79.26 -317.33 0 0 79.26 -158.66 0 0 79.26 -238 0 0 79.26 -158.66 0 0 79.26 -158.67 0 0 79.26 -158.66 0 0 79.26 -158.67 0 0 79.26 -158.66 0 0 79.26 -79.33 0 0 79.26 -158.67 0 0 158.52 79.34 0 0 158.52z"/>
  <path class="fil0" d="M2935.28 2694.85l-237.99 0 0 317.04 79.33 0 0 317.04 79.33 0 0 237.79 79.33 0 0 237.78 79.34 0 0 237.78 79.33 0 0 -79.26 158.66 0 0 -79.26 79.34 0 0 -79.26 79.33 0 0 -79.26 79.33 0 0 -79.26 79.33 0 0 -158.53 79.33 0 0 -554.82 -79.33 0 0 -158.52 -158.66 0 0 -79.26 -158.67 0 0 -79.26 -317.33 0 0 79.26z"/>
  <path class="fil0" d="M14676.42 3170.41l-79.33 0 0 79.26 -158.66 0 0 158.52 -79.33 0 0 158.53 -79.34 0 0 79.26 79.34 0 0 237.78 79.33 0 0 158.52 79.33 0 0 79.26 158.66 0 0 79.26 476 0 0 -79.26 158.66 0 0 -79.26 79.33 0 0 -158.52 79.33 0 0 -475.57 -79.33 0 0 -79.26 -79.33 0 0 79.26 79.33 0 0 79.26 -79.33 0 0 158.53 -79.33 0 0 79.26 -317.33 0 0 -79.26 -79.33 0 0 -79.26 -79.33 0 0 -237.79 79.33 0 0 -79.26 79.33 0 0 -79.26 158.66 0 0 -79.26 -396.66 0 0 79.26z"/>
  <path class="fil0" d="M5156.58 3487.45l-158.66 0 0 79.27 -79.33 0 0 79.26 -79.34 0 0 554.82 79.34 0 0 79.26 79.33 0 0 79.26 79.33 0 0 79.26 238 0 0 79.26 158.66 0 0 -79.26 238 0 0 -79.26 79.33 0 0 -79.26 79.33 0 0 -79.26 79.33 0 0 -237.78 79.33 0 0 -79.26 -79.33 0 0 -237.78 -79.33 0 0 -79.26 -79.33 0 0 79.26 79.33 0 0 79.26 -79.33 0 0 158.52 -79.33 0 0 79.26 -396.66 0 0 -79.26 -79.34 0 0 -317.04 79.34 0 0 -79.27 237.99 0 0 -79.26 -396.66 0 0 79.26z"/>
  <path class="fil0" d="M9837.17 2377.81l-237.99 0 0 79.26 -158.67 0 0 79.26 -79.33 0 0 158.52 -79.33 0 0 554.82 79.33 0 0 79.26 79.33 0 0 158.52 158.67 0 0 -79.26 79.33 0 0 -79.26 79.33 0 0 -79.26 79.33 0 0 -158.52 79.33 0 0 -79.26 79.34 0 0 -79.26 79.33 0 0 -79.26 79.33 0 0 -79.26 79.33 0 0 -79.26 79.33 0 0 -79.26 79.34 0 0 -79.26 -79.34 0 0 -79.26 -158.66 0 0 -79.26 -238 0 0 -79.26 -79.33 0 0 79.26z"/>
  <g id="_2586702731104">
   <path class="fil1" d="M3807.94 6420.09l-158.67 0 0 79.26 -237.99 0 0 79.26 -238 0 0 79.26 -238 0 0 79.26 -237.99 0 0 -158.52 -79.33 0 0 -158.52 -79.34 0 0 -158.52 -79.33 0 0 -237.78 -79.33 0 0 -158.53 -79.33 0 0 -158.52 -79.33 0 0 -158.52 -79.34 0 0 -158.52 -79.33 0 0 -237.78 -79.33 0 0 -158.52 -79.33 0 0 -158.52 -79.33 0 0 -158.52 -79.34 0 0 -237.78 -79.33 0 0 -158.52 -79.33 0 0 -158.52 -79.33 0 0 -158.52 -79.33 0 0 -237.78 -79.34 0 0 -79.26 -158.66 0 0 79.26 -238 0 0 -158.52 -79.33 0 0 -79.27 -79.33 0 0 -158.52 -79.33 0 0 -158.52 -79.33 0 0 -79.26 -79.34 0 0 -158.52 -79.33 0 0 -158.52 -79.33 0 0 -79.26 -79.33 0 0 -158.52 -79.33 0 0 79.26 -158.67 0 0 79.26 -79.33 0 0 158.52 79.33 0 0 158.52 79.33 0 0 158.52 79.34 0 0 79.26 79.33 0 0 158.52 79.33 0 0 158.53 79.33 0 0 79.26 79.33 0 0 158.52 79.34 0 0 158.52 79.33 0 0 79.26 79.33 0 0 158.52 158.66 0 0 -79.26 158.67 0 0 -79.26 79.33 0 0 237.78 79.33 0 0 158.52 79.33 0 0 158.52 79.34 0 0 158.52 79.33 0 0 158.52 79.33 0 0 237.78 79.33 0 0 158.52 79.33 0 0 158.52 79.34 0 0 158.52 79.33 0 0 237.78 79.33 0 0 158.53 79.33 0 0 158.52 79.33 0 0 158.52 79.34 0 0 237.78 79.33 0 0 158.52 79.33 0 0 158.52 79.33 0 0 158.52 79.33 0 0 79.26 238 0 0 -79.26 238 0 0 -79.26 237.99 0 0 -79.26 238 0 0 -79.26 238 0 0 -79.26 158.66 0 0 -237.78 -79.33 0 0 -79.26z"/>
   <path class="fil1" d="M3966.6 5786l79.33 0 0 79.26 79.34 0 0 79.27 158.66 0 0 79.26 158.66 0 0 79.26 396.66 0 0 79.26 158.67 0 0 -79.26 396.66 0 0 -79.26 158.66 0 0 -79.26 158.67 0 0 -79.27 79.33 0 0 -79.26 158.66 0 0 158.53 79.33 0 0 317.04 158.67 0 0 -79.26 475.99 0 0 -79.26 555.32 0 0 -79.26 79.34 0 0 -317.05 -317.33 0 0 79.26 -555.33 0 0 79.26 -237.99 0 0 -554.82 -79.33 0 0 79.26 -79.34 0 0 79.26 -79.33 0 0 79.26 -158.66 0 0 79.26 -238 0 0 79.26 -396.66 0 0 79.26 -79.33 0 0 -79.26 -396.66 0 0 -79.26 -158.66 0 0 -79.26 -158.67 0 0 -79.26 -79.33 0 0 -79.26 -79.33 0 0 -79.26 -79.33 0 0 -79.26 -79.34 0 0 -158.52 -79.33 0 0 -158.52 -79.33 0 0 -317.04 -79.33 0 0 -158.52 -79.33 0 0 79.26 -79.34 0 0 317.04 79.34 0 0 237.78 79.33 0 0 317.04 79.33 0 0 317.04 79.33 0 0 79.26z"/>
   <path class="fil1" d="M7536.54 5072.66l79.33 0 0 79.26 158.67 0 0 79.26 158.66 0 0 79.26 158.67 0 0 79.26 158.66 0 0 79.26 158.66 0 0 79.26 158.67 0 0 79.26 158.66 0 0 79.26 158.67 0 0 79.26 158.66 0 0 79.26 158.66 0 0 79.27 158.67 0 0 79.26 158.66 0 0 79.26 158.67 0 0 79.26 158.66 0 0 -475.57 -158.66 0 0 -79.26 -158.67 0 0 -79.26 -158.66 0 0 -79.26 -158.67 0 0 -79.26 -158.66 0 0 -79.26 -158.66 0 0 -79.26 -158.67 0 0 -79.26 -158.66 0 0 -79.26 -238 0 0 -79.26 -158.66 0 0 -79.26 -158.67 0 0 -79.26 -158.66 0 0 -79.26 -158.66 0 0 -79.26 -158.67 0 0 396.3z"/>
   <path class="fil1" d="M14597.09 5627.48l238 0 0 -79.26 237.99 0 0 317.04 -79.33 0 0 158.53 238 0 0 79.26 555.32 0 0 79.26 238 0 0 396.3 158.66 0 0 79.26 238 0 0 79.26 238 0 0 79.26 237.99 0 0 79.26 317.33 0 0 -79.26 79.33 0 0 -237.78 -317.33 0 0 -79.26 -237.99 0 0 -79.26 -238 0 0 -79.26 -237.99 0 0 -475.57 -476 0 0 -79.26 -555.32 0 0 -475.56 79.33 0 0 -79.26 -158.66 0 0 79.26 -555.33 0 0 317.04z"/>
   <path class="fil1" d="M10075.17 4914.14l158.66 0 0 -79.26 238 0 0 -79.26 158.66 0 0 -79.26 158.67 0 0 317.04 -79.34 0 0 317.04 555.33 0 0 79.26 475.99 0 0 79.26 396.66 0 0 -158.52 79.33 0 0 -158.52 -158.66 0 0 -79.26 -555.33 0 0 -79.26 -475.99 0 0 -79.26 -158.66 0 0 -79.26 79.33 0 0 -396.3 79.33 0 0 -158.52 -79.33 0 0 79.26 -158.66 0 0 79.26 -158.67 0 0 79.26 -237.99 0 0 79.26 -317.33 0 0 317.04z"/>
   <path class="fil1" d="M14438.43 5865.26l-79.33 0 0 -79.26 -476 0 0 -79.26 -396.66 0 0 -79.26 -475.99 0 0 -475.56 -79.33 0 0 -79.26 -79.33 0 0 158.52 -79.33 0 0 713.35 475.99 0 0 79.26 475.99 0 0 79.26 475.99 0 0 79.26 238 0 0 -317.05z"/>
  </g>
  <g id="_2586702732304">
   <path class="fil2" d="M2697.29 2694.85l237.99 0 0 -79.26 317.33 0 0 79.26 158.67 0 0 79.26 158.66 0 0 158.52 79.33 0 0 554.82 -79.33 0 0 158.53 -79.33 0 0 79.26 -79.33 0 0 79.26 -79.33 0 0 79.26 -79.34 0 0 79.26 -158.66 0 0 79.26 -79.33 0 0 -237.78 -79.34 0 0 -237.78 -79.33 0 0 -237.79 -79.33 0 0 -317.04 -79.33 0 0 -317.04zm0 -871.86l-634.66 0 0 79.26 -317.33 0 0 79.26 -237.99 0 0 79.26 -238 0 0 79.26 -158.66 0 0 79.26 -158.67 0 0 79.26 -158.66 0 0 79.26 -79.33 0 0 158.52 79.33 0 0 158.52 79.33 0 0 79.26 79.33 0 0 158.52 79.34 0 0 158.52 79.33 0 0 79.26 237.99 0 0 -79.26 238 0 0 158.52 79.33 0 0 237.78 79.33 0 0 158.53 79.34 0 0 158.52 79.33 0 0 158.52 79.33 0 0 237.78 79.33 0 0 158.52 79.33 0 0 158.52 79.34 0 0 158.52 79.33 0 0 237.78 79.33 0 0 158.52 79.33 0 0 158.52 79.33 0 0 158.52 79.34 0 0 158.52 79.33 0 0 237.78 79.33 0 0 158.53 79.33 0 0 158.52 79.33 0 0 158.52 79.34 0 0 -79.26 317.33 0 0 -79.26 237.99 0 0 -237.79 -79.33 0 0 -317.04 -79.33 0 0 -317.04 -79.33 0 0 -317.04 -79.34 0 0 -317.04 -79.33 0 0 -237.78 158.67 0 0 -79.26 79.33 0 0 -79.26 79.33 0 0 -79.26 79.33 0 0 -79.26 79.33 0 0 -79.26 79.34 0 0 -79.26 79.33 0 0 -79.26 79.33 0 0 -79.26 79.33 0 0 -158.52 79.33 0 0 -158.53 79.34 0 0 -158.52 79.33 0 0 -713.34 -79.33 0 0 -158.52 -79.34 0 0 -79.26 -79.33 0 0 -79.26 -79.33 0 0 -79.26 -79.33 0 0 -79.26 -79.33 0 0 -79.26 -158.67 0 0 -79.26 -237.99 0 0 -79.26 -555.33 0 0 -79.26 -79.33 0 0 79.26z"/>
   <path class="fil2" d="M15707.74 2298.55l238 0 0 237.78 -79.33 0 0 475.56 79.33 0 0 79.26 79.33 0 0 79.26 79.33 0 0 158.52 79.33 0 0 396.31 79.34 0 0 237.78 -79.34 0 0 317.04 -79.33 0 0 158.52 -79.33 0 0 158.52 -79.33 0 0 79.26 -79.33 0 0 79.26 -79.34 0 0 158.52 -79.33 0 0 158.52 -79.33 0 0 317.04 158.66 0 0 79.26 396.66 0 0 -79.26 79.34 0 0 -396.3 79.33 0 0 -475.56 79.33 0 0 -475.56 79.33 0 0 -237.78 79.33 0 0 1664.46 79.34 0 0 554.83 79.33 0 0 79.26 317.33 0 0 79.26 158.66 0 0 -237.78 79.33 0 0 -237.79 79.33 0 0 -237.78 79.34 0 0 -237.78 79.33 0 0 -237.78 79.33 0 0 -317.04 79.33 0 0 -237.78 79.33 0 0 -237.78 79.34 0 0 -237.78 79.33 0 0 -237.78 79.33 0 0 -237.79 79.33 0 0 -237.78 79.33 0 0 -237.78 79.34 0 0 -237.78 79.33 0 0 -158.52 -158.67 0 0 -79.26 -317.32 0 0 -79.26 -317.33 0 0 317.04 -79.33 0 0 317.04 -79.34 0 0 317.04 -79.33 0 0 317.05 -79.33 0 0 317.04 -79.33 0 0 -158.52 -79.33 0 0 -317.04 -79.34 0 0 -396.31 -79.33 0 0 -396.3 -79.33 0 0 -396.3 -79.33 0 0 -158.52 -317.33 0 0 -79.26 -396.66 0 0 -79.26 -317.33 0 0 237.78z"/>
   <path class="fil2" d="M6822.55 1743.73l-237.99 0 0 79.26 -317.33 0 0 79.26 -238 0 0 79.26 -79.33 0 0 158.52 238 0 0 -79.26 79.33 0 0 475.56 79.33 0 0 713.34 79.33 0 0 158.52 79.34 0 0 79.26 79.33 0 0 158.53 79.33 0 0 317.04 79.33 0 0 396.3 -79.33 0 0 317.04 -79.33 0 0 158.52 -79.33 0 0 475.56 79.33 0 0 79.26 317.33 0 0 -79.26 237.99 0 0 -1347.42 79.33 0 0 79.26 158.67 0 0 79.26 158.66 0 0 79.26 158.67 0 0 79.26 158.66 0 0 79.26 158.66 0 0 79.26 158.67 0 0 79.26 158.66 0 0 79.26 158.67 0 0 79.26 158.66 0 0 79.26 158.66 0 0 79.26 79.34 0 0 79.26 158.66 0 0 79.26 158.66 0 0 79.26 158.67 0 0 79.26 158.66 0 0 79.26 158.67 0 0 -634.08 -317.33 0 0 -79.26 -158.67 0 0 -79.26 -237.99 0 0 -79.26 -79.33 0 0 -79.26 -79.34 0 0 -79.26 -79.33 0 0 -79.26 -79.33 0 0 -79.26 -79.33 0 0 -158.52 -158.67 0 0 -79.26 -158.66 0 0 -79.26 -238 0 0 -79.26 -158.66 0 0 -79.26 -238 0 0 -79.27 -158.66 0 0 -79.26 79.33 0 0 -79.26 79.33 0 0 -79.26 79.34 0 0 -79.26 79.33 0 0 -79.26 79.33 0 0 -79.26 79.33 0 0 -79.26 79.33 0 0 -79.26 79.34 0 0 -79.26 79.33 0 0 -79.26 79.33 0 0 -79.26 79.33 0 0 -79.26 79.33 0 0 -79.26 79.34 0 0 -237.78 -79.34 0 0 -79.26 -158.66 0 0 -79.26 -79.33 0 0 -79.26 -79.33 0 0 -79.26 -79.34 0 0 -79.26 -79.33 0 0 -79.26 -79.33 0 0 -79.26 -79.33 0 0 79.26 -79.33 0 0 158.52 -79.34 0 0 79.26 -79.33 0 0 158.52 -79.33 0 0 79.26 -79.33 0 0 158.52 -79.33 0 0 79.26 -79.34 0 0 79.26 -79.33 0 0 158.52 -79.33 0 0 79.26 -79.33 0 0 -1109.64 -158.67 0 0 79.26z"/>
   <path class="fil2" d="M13089.78 1822.99l-79.33 0 0 396.3 -79.33 0 0 475.56 -79.33 0 0 237.78 -79.33 0 0 -317.04 -79.34 0 0 -396.3 -79.33 0 0 -396.3 -793.32 0 0 317.04 -79.33 0 0 475.56 -79.33 0 0 475.56 -79.33 0 0 317.04 79.33 0 0 79.26 79.33 0 0 79.27 79.33 0 0 79.26 -79.33 0 0 79.26 -79.33 0 0 79.26 -79.33 0 0 79.26 -79.34 0 0 158.52 -79.33 0 0 475.56 -79.33 0 0 79.26 238 0 0 79.26 396.66 0 0 79.26 79.33 0 0 -79.26 79.33 0 0 -475.56 79.33 0 0 -475.56 79.33 0 0 -158.52 79.34 0 0 79.26 79.33 0 0 237.78 79.33 0 0 158.52 79.33 0 0 158.52 79.33 0 0 158.52 79.34 0 0 158.52 79.33 0 0 -237.78 79.33 0 0 -158.52 79.33 0 0 -237.78 79.33 0 0 -158.52 79.34 0 0 317.04 79.33 0 0 475.56 79.33 0 0 554.82 79.33 0 0 158.52 79.33 0 0 79.26 555.33 0 0 79.26 158.66 0 0 -79.26 -79.33 0 0 -79.26 -79.33 0 0 -79.26 -79.33 0 0 -79.26 -79.34 0 0 -79.26 -79.33 0 0 -79.26 -79.33 0 0 -79.26 -79.33 0 0 -79.26 -79.33 0 0 -237.78 -79.34 0 0 -396.3 -79.33 0 0 -79.26 79.33 0 0 -317.04 79.34 0 0 -237.79 79.33 0 0 -79.26 79.33 0 0 -158.52 79.33 0 0 -554.82 -79.33 0 0 -475.56 -79.33 0 0 -554.82 -555.33 0 0 158.52z"/>
   <path class="fil2" d="M10313.16 2694.85l-79.33 0 0 79.26 -79.33 0 0 79.26 -79.33 0 0 79.26 -79.33 0 0 79.26 -79.34 0 0 79.26 -79.33 0 0 158.52 -79.33 0 0 79.26 -79.33 0 0 79.26 -79.33 0 0 79.26 -158.67 0 0 -158.52 -79.33 0 0 -79.26 -79.33 0 0 -554.82 79.33 0 0 -158.52 79.33 0 0 -79.26 158.67 0 0 -79.26 237.99 0 0 -79.26 79.33 0 0 79.26 238 0 0 79.26 158.66 0 0 79.26 79.34 0 0 79.26 -79.34 0 0 79.26zm-555.32 -634.08l-238 0 0 79.26 -237.99 0 0 79.26 -79.34 0 0 79.26 -158.66 0 0 79.26 -79.33 0 0 79.26 -79.33 0 0 158.52 -79.34 0 0 237.78 -79.33 0 0 713.35 79.33 0 0 79.26 79.34 0 0 158.52 79.33 0 0 79.26 79.33 0 0 79.26 79.33 0 0 79.26 158.67 0 0 79.26 158.66 0 0 79.26 872.65 0 0 -79.26 238 0 0 -79.26 158.66 0 0 -79.26 158.67 0 0 -79.26 158.66 0 0 -79.26 79.33 0 0 -79.26 79.34 0 0 -158.52 -79.34 0 0 -79.27 -79.33 0 0 -79.26 -79.33 0 0 -79.26 -79.33 0 0 -79.26 -79.33 0 0 -79.26 -79.34 0 0 79.26 -79.33 0 0 79.26 -79.33 0 0 79.26 -158.66 0 0 79.26 -158.67 0 0 79.27 -317.33 0 0 -79.27 79.34 0 0 -79.26 79.33 0 0 -79.26 79.33 0 0 -79.26 79.33 0 0 -79.26 79.33 0 0 -79.26 79.34 0 0 -158.52 79.33 0 0 -79.26 79.33 0 0 -79.26 79.33 0 0 -79.26 79.33 0 0 -79.26 79.34 0 0 -79.26 79.33 0 0 -79.26 79.33 0 0 -158.52 -79.33 0 0 -79.26 -158.67 0 0 -79.26 -158.66 0 0 -79.26 -238 0 0 -79.26 -555.32 0 0 79.26z"/>
   <path class="fil2" d="M5791.24 3566.72l79.33 0 0 79.26 79.33 0 0 237.78 79.33 0 0 79.26 -79.33 0 0 237.78 -79.33 0 0 79.26 -79.33 0 0 79.26 -79.33 0 0 79.26 -238 0 0 79.26 -158.66 0 0 -79.26 -238 0 0 -79.26 -79.33 0 0 -79.26 -79.33 0 0 -79.26 -79.34 0 0 -554.82 79.34 0 0 -79.26 79.33 0 0 -79.27 158.66 0 0 -79.26 396.66 0 0 79.26 -237.99 0 0 79.27 -79.34 0 0 317.04 79.34 0 0 79.26 396.66 0 0 -79.26 79.33 0 0 -158.52 79.33 0 0 -79.26 -79.33 0 0 -79.26zm-396.66 -317.05l-396.66 0 0 79.26 -79.33 0 0 79.26 -158.67 0 0 79.26 -79.33 0 0 79.27 -79.33 0 0 79.26 -79.33 0 0 79.26 -79.34 0 0 79.26 -79.33 0 0 158.52 -79.33 0 0 237.78 -79.33 0 0 554.82 79.33 0 0 158.52 79.33 0 0 158.52 79.33 0 0 79.26 79.34 0 0 79.26 158.66 0 0 79.26 317.33 0 0 79.26 237.99 0 0 -79.26 317.33 0 0 -79.26 158.67 0 0 -79.26 79.33 0 0 -79.26 158.66 0 0 -79.26 79.33 0 0 -79.26 79.34 0 0 -158.52 79.33 0 0 -158.52 79.33 0 0 -158.52 79.33 0 0 -634.08 -79.33 0 0 -158.52 -79.33 0 0 -158.53 -79.33 0 0 -79.26 -79.34 0 0 -79.26 -158.66 0 0 -79.26 -317.33 0 0 -79.26 -158.66 0 0 79.26z"/>
   <path class="fil2" d="M15311.08 3328.93l79.33 0 0 79.26 79.33 0 0 475.57 -79.33 0 0 158.52 -79.33 0 0 79.26 -158.66 0 0 79.26 -476 0 0 -79.26 -158.66 0 0 -79.26 -79.33 0 0 -158.52 -79.33 0 0 -237.78 -79.34 0 0 -79.26 79.34 0 0 -158.53 79.33 0 0 -158.52 158.66 0 0 -79.26 79.33 0 0 -79.26 396.66 0 0 79.26 -158.66 0 0 79.26 -79.33 0 0 79.26 -79.33 0 0 237.79 79.33 0 0 79.26 79.33 0 0 79.26 317.33 0 0 -79.26 79.33 0 0 -158.53 79.33 0 0 -79.26 -79.33 0 0 -79.26zm-475.99 -317.04l-238 0 0 79.26 -158.66 0 0 79.26 -158.67 0 0 79.26 -79.33 0 0 79.26 -79.33 0 0 79.26 -79.33 0 0 158.53 -79.33 0 0 158.52 -79.34 0 0 237.78 -79.33 0 0 396.3 79.33 0 0 158.52 79.34 0 0 158.52 79.33 0 0 79.26 79.33 0 0 79.26 79.33 0 0 79.26 238 0 0 79.26 475.99 0 0 -79.26 238 0 0 -79.26 158.66 0 0 -79.26 79.33 0 0 -79.26 158.67 0 0 -158.52 79.33 0 0 -79.26 79.33 0 0 -158.52 79.33 0 0 -158.52 79.34 0 0 -634.09 -79.34 0 0 -158.52 -79.33 0 0 -79.26 -79.33 0 0 -79.26 -79.33 0 0 -79.26 -79.34 0 0 -79.26 -317.32 0 0 -79.26 -317.33 0 0 79.26z"/>
   <path class="fil2" d="M10313.16 634.08l-79.33 0 0 79.26 -79.33 0 0 79.26 -79.33 0 0 79.26 -79.33 0 0 79.26 -79.34 0 0 158.52 -79.33 0 0 79.27 -79.33 0 0 79.26 -79.33 0 0 79.26 -79.33 0 0 79.26 237.99 0 0 -79.26 158.67 0 0 -79.26 158.66 0 0 -79.26 158.66 0 0 -79.27 158.67 0 0 -79.26 158.66 0 0 -158.52 -79.33 0 0 -79.26 -79.33 0 0 -158.52 -79.33 0 0 -79.26 -79.34 0 0 79.26z"/>
  </g>
 </g>
</svg>
