<?xml version="1.0" encoding="UTF-8"?>
<!DOCTYPE svg PUBLIC "-//W3C//DTD SVG 1.1//EN" "http://www.w3.org/Graphics/SVG/1.1/DTD/svg11.dtd">
<!-- Creator: CorelDRAW 2021 (64-Bit) -->
<svg xmlns="http://www.w3.org/2000/svg" xml:space="preserve" width="100%" height="100%" version="1.1" style="shape-rendering:geometricPrecision; text-rendering:geometricPrecision; image-rendering:optimizeQuality; fill-rule:evenodd; clip-rule:evenodd"
viewBox="0 0 2999.18 1999.46"
 xmlns:xlink="http://www.w3.org/1999/xlink"
 xmlns:xodm="http://www.corel.com/coreldraw/odm/2003">
 <defs>
  <style type="text/css">
   <![CDATA[
    .fil1 {fill:black}
    .fil0 {fill:red}
   ]]>
  </style>
 </defs>
 <g id="Capa_x0020_1">
  <metadata id="CorelCorpID_0Corel-Layer"/>
  <path class="fil0" d="M2999.17 0.02l-2999.17 -0.02 0 1999.46c1603.56,-2.7 1208.35,-1199.67 2999.17,-1199.67l0 -799.77z"/>
  <rect class="fil1" x="0.01" y="-0" width="2999.16" height="72.71"/>
  <path class="fil1" d="M1380.12 1345.11c-165.1,151.96 -319.02,296.5 -520.39,401.26 -244.69,127.29 -514.36,172.49 -787.02,179.41l-72.71 0 0 73.68c1603.56,-2.7 1208.34,-1199.67 2999.18,-1199.67l0 -72.06 -72.71 0c-327.24,5.91 -658.32,53.59 -956.74,193.28 -231.11,108.17 -404.06,253.32 -589.61,424.1z"/>
 </g>
</svg>
