<?xml version="1.0" encoding="UTF-8"?>
<!DOCTYPE svg PUBLIC "-//W3C//DTD SVG 1.1//EN" "http://www.w3.org/Graphics/SVG/1.1/DTD/svg11.dtd">
<!-- Creator: CorelDRAW 2021 (64-Bit) -->
<svg xmlns="http://www.w3.org/2000/svg" xml:space="preserve" width="188.017mm" height="71.3343mm" version="1.1" shape-rendering="geometricPrecision" text-rendering="geometricPrecision" image-rendering="optimizeQuality" fill-rule="evenodd" clip-rule="evenodd"
viewBox="0 0 16972.34 6439.37"
 xmlns:xlink="http://www.w3.org/1999/xlink"
 xmlns:xodm="http://www.corel.com/coreldraw/odm/2003">
 <g id="Capa_x0020_1">
  <metadata id="CorelCorpID_0Corel-Layer"/>
  <path fill="#3FB3D0" fill-rule="nonzero" d="M616.04 3515.55c0,0 143.18,240.97 143.86,240.62l252.59 -126.32 35.11 -17.55 1157.93 2579.18 111.29 247.89 259.38 -85.82 627.05 -207.46 274.58 -90.85 -72.63 -278.84 -332.88 -1277.96c95.97,-71.7 185.23,-148.12 267.59,-228 -18.25,153.57 -8.88,308.19 32.84,456.14 87.17,309.46 290.22,552.92 571.75,685.51 304.08,143.21 675.26,139.73 1018.36,-9.56 172.26,-75.45 325.57,-183.19 454.92,-312.11l47.3 509.28 1097.41 -173.02 -1.46 -986.83 2293.63 1112.94 0 -1100.69c92.66,-8.43 186.47,-24.01 280.78,-47.78 252.95,-63.72 468.35,-150.25 660.35,-267.23l-96.32 591.32 1236.59 182.58 68.38 -447.24 323.03 594.87 197.01 -383.33 72.04 625.03 1402.39 233.34 -74.46 -472.19c191.71,19.62 394.23,-7.81 589.59,-83.6 46.82,-18.3 92.16,-39.29 136.27,-62.24l-56.43 504.2 933.27 121.15 7.64 383.43 972.46 296.5 1267.42 -3840.15 -1319.52 -307.02 -125.25 518.77 -115.8 -572.51 -1550.4 -325.61 11.35 863.53 233.49 49.64 -17.49 156.39c-2.27,-1.21 -4.41,-2.55 -6.71,-3.72 -288.96,-150.73 -647.92,-162.22 -986.28,-30.94 -112.87,44.47 -218.05,103.29 -314.14,173.03l-232.92 -1476.84 -1031.19 10.75 -28.88 169.96 -1084.83 11.32 -124.18 762.5 -90.15 -110.27c-262.93,-321.55 -643.95,-496.03 -1066.14,-500.52l920.96 -505.51 -642.3 -954.32 -1160.99 1352.43 200.81 243.37c-182.02,76.18 -340.5,180.02 -471.16,305.16l-995.19 -874.41 -348.71 672.18 13.6 -642.33 -1556.47 514.04 39.71 838 264.84 -72.01 39.43 424.69c-302.33,-133.1 -665.61,-126.57 -1003.05,20.29 -99.76,44.03 -193.2,98.85 -279.34,162.28 58.49,-259.42 44.63,-514.46 -53.69,-740.73 -116.11,-267.21 -320.31,-487.34 -570.9,-624.78 -175.67,-115.35 -385.12,-186.4 -604.59,-208.74 -537.97,-88.99 -1184.54,14.95 -1820.64,292.66 -233.97,102.15 -452.37,218.56 -649.12,346.02l-248.84 161.19 150.18 252.77 465.86 784.1zm6453.1 -177.73l0 0 294.66 -289.92c-12.61,132.42 -5.98,269.8 21.76,409.66l-316.42 -119.73zm2893.43 -225l0 0 -202.4 -180.45 216.26 -233.08 64.88 -69.92 -78.73 483.45z"/>
  <path fill="#FFCC29" fill-rule="nonzero" d="M15649.95 1829.6l-125.53 517.46 -116.05 -573.71 -1553.8 -341.8 11.39 863.65 233.99 52.09 -17.54 156.19c-2.27,-1.23 -4.43,-2.59 -6.7,-3.81 -289.6,-153.73 -649.36,-168.98 -988.47,-41.21 -113.1,43.28 -218.52,101.01 -314.83,169.74l-233.42 -1479.27 -1033.47 0 -28.92 169.64 -1087.21 0 -124.44 761.2 -90.36 -111.19c-263.5,-324.3 -645.35,-502.76 -1068.45,-511.65l922.95 -495.9 -643.7 -961.04 -1163.53 1340.33 201.26 245.44c-182.43,74.28 -341.25,176.47 -472.19,300.23l-997.38 -884.78 -349.46 668.53 13.64 -642.17 -1559.88 497.8 39.79 838.39 265.41 -69.24 39.55 425.1c-303,-136.25 -667.08,-133.52 -1005.26,9.81 -99.97,43 -193.61,96.84 -279.96,159.37 58.62,-258.8 44.74,-513.99 -53.8,-741.29 -116.36,-268.44 -321,-490.7 -572.14,-630.74 -176.04,-117.18 -385.95,-190.41 -605.9,-215.07 -539.13,-94.59 -1187.13,2.6 -1824.61,273.67 -234.49,99.7 -453.36,213.84 -650.54,339.23l-249.37 158.6 150.51 254.35 466.88 788.96c0,0 143.48,242.47 144.17,242.14l253.14 -123.72 35.2 -17.18 1160.45 2591.25 111.54 249.06 259.92 -83.09 628.43 -200.93 275.19 -87.98 -72.78 -279.59 -333.61 -1281.43c96.17,-70.7 185.63,-146.18 268.18,-225.21 -18.31,153.37 -8.91,308.09 32.9,456.48 87.35,310.37 290.83,555.93 573,691.46 304.74,146.4 676.73,146.79 1020.6,1.07 172.62,-73.66 326.25,-179.78 455.89,-307.37l47.39 509.79 1099.82 -161.57 -1.44 -986.84 2298.62 1136.88 0 -1100.7c92.86,-7.45 186.89,-22.06 281.38,-44.84 253.51,-61.09 469.4,-145.38 661.79,-260.35l-96.52 590.31 1239.29 195.49 68.53 -446.53 323.74 598.23 197.43 -381.27 72.2 625.79 1405.47 247.97 -74.64 -472.97c192.15,21.63 395.09,-3.68 590.88,-77.42 46.93,-17.8 92.38,-38.35 136.57,-60.84l-56.54 503.64 935.29 130.88 7.65 383.51 974.61 306.65 1270.17 -3826.93 -1322.39 -320.78zm-12747.72 1430.58l0 0c-45.31,-150.17 -143.06,-474.14 -143.06,-474.14 0.51,1.76 -19.72,-69.77 -42.49,-150.15 89.44,-15.69 174.99,-7.44 245.34,26.71 39.14,19 107.02,63.27 121.86,146.27 33.3,186.38 -31.18,318.8 -181.65,451.31zm4343.36 -254.01l0 0 295.32 -286.85c-12.65,132.29 -6,269.75 21.78,409.88l-317.1 -123.03zm1355.69 -116.53l0 0c-77.99,-142.64 -61.49,-324.74 54.4,-451.34 111.91,-122.26 283.53,-156.74 429.33,-100.35l-483.73 551.7zm1544.08 -78.27l0 0 -202.85 -182.56 216.73 -230.82 65.01 -69.25 -78.9 482.63z"/>
  <g id="_1957894534304">
   <path fill="#1F5498" fill-rule="nonzero" d="M15649.95 1829.6l-125.53 517.46 -116.05 -573.71 -1553.8 -341.8 11.39 863.65 233.99 52.09 -17.54 156.19c-2.27,-1.23 -4.43,-2.59 -6.7,-3.81 -289.6,-153.73 -649.36,-168.98 -988.47,-41.21 -113.1,43.28 -218.52,101.01 -314.83,169.74l-233.42 -1479.27 -1033.47 0 -28.92 169.64 -1087.21 0 -124.44 761.2 -90.36 -111.19c-263.5,-324.3 -645.35,-502.76 -1068.45,-511.65l922.95 -495.9 -643.7 -961.04 -1163.53 1340.33 201.26 245.44c-182.43,74.28 -341.25,176.47 -472.19,300.23l-997.38 -884.78 -349.46 668.53 13.64 -642.17 -1559.88 497.8 39.79 838.39 265.41 -69.24 39.55 425.1c-303,-136.25 -667.08,-133.52 -1005.26,9.81 -99.97,43 -193.61,96.84 -279.96,159.37 58.62,-258.8 44.74,-513.99 -53.8,-741.29 -116.36,-268.44 -321,-490.7 -572.14,-630.74 -176.04,-117.18 -385.95,-190.41 -605.9,-215.07 -539.13,-94.59 -1187.13,2.6 -1824.61,273.67 -234.49,99.7 -453.36,213.84 -650.54,339.23l-249.37 158.6 150.51 254.35 466.88 788.96c0,0 143.48,242.47 144.17,242.14l253.14 -123.72 35.2 -17.18 1160.45 2591.25 111.54 249.06 259.92 -83.09 628.43 -200.93 275.19 -87.98 -72.78 -279.59 -333.61 -1281.43c96.17,-70.7 185.63,-146.18 268.18,-225.21 -18.31,153.37 -8.91,308.09 32.9,456.48 87.35,310.37 290.83,555.93 573,691.46 304.74,146.4 676.73,146.79 1020.6,1.07 172.62,-73.66 326.25,-179.78 455.89,-307.37l47.39 509.79 1099.82 -161.57 -1.44 -986.84 2298.62 1136.88 0 -1100.7c92.86,-7.45 186.89,-22.06 281.38,-44.84 253.51,-61.09 469.4,-145.38 661.79,-260.35l-96.52 590.31 1239.29 195.49 68.53 -446.53 323.74 598.23 197.43 -381.27 72.2 625.79 1405.47 247.97 -74.64 -472.97c192.15,21.63 395.09,-3.68 590.88,-77.42 46.93,-17.8 92.38,-38.35 136.57,-60.84l-56.54 503.64 935.29 130.88 7.65 383.51 974.61 306.65 1270.17 -3826.93 -1322.39 -320.78zm-5490.71 568.38l0 0 65.01 -69.25 -78.9 482.63 -202.85 -182.56 216.73 -230.82zm-823.45 -1970.99l0 0 340.27 462.41 -973.18 482.27 -67.25 -101.87 700.15 -842.81zm-1773.1 2702.2l0 0 -317.1 -123.03 295.32 -286.85c-12.65,132.29 -6,269.75 21.78,409.88zm-4672.25 864.28l0 0 387.88 1489.92 -628.42 200.91 -1290.03 -2880.57c-69.83,36.78 -199.3,98.59 -318.83,157.38l-466.87 -788.95c186.25,-118.45 389.48,-223.77 606.18,-315.92 608.4,-258.7 1187.78,-335.44 1652.45,-253.92 163.8,18.77 337.97,67.62 489.56,168.53 209.13,117.46 368.73,284.69 461.24,498.08 224.56,517.96 -150.7,1266.26 -893.17,1724.54zm2664.81 367.45l0 0c-130.53,181.01 -311.01,331.87 -524.43,422.9 -545.52,231.19 -1090.63,0 -1236.21,-517.21 -141.25,-501.4 187.17,-1096.63 715.67,-1323.89 337.03,-142.85 675.41,-109 918.26,55.82 150.23,101.97 263.99,253.94 318.04,445.56 5.9,20.83 10.74,41.84 15.11,62.93 15.08,73 21.11,147.33 18.66,221.75 -7.31,221.33 -88.86,443.18 -225.11,632.14zm3192.09 420.63l0 0 -2280.91 -1140.84 4 1195.16 -590.05 80.77 -41.55 -493.57c182.61,-311.92 249.16,-680.1 153.66,-1016.96 -52.25,-185.24 -148.31,-347.07 -279.33,-475.57l-84.65 -1005.27 -265.42 69.24 -11.54 -253.88 947.91 -282.15 57.71 977.27 698.27 -980.96 682.37 649.58 -953.8 1005.65 896.08 354.62c100.57,189.59 252.52,351.34 444.66,469.57 185.63,114.19 397.55,182.44 622.59,203.54l0 643.79zm499.19 -975.46l0 0c-71.73,17.29 -142.31,28.82 -211.5,35.56 -523.33,51.02 -962.06,-189.78 -1129.16,-579.33 -19.95,-46.53 -36.09,-95.13 -47.99,-145.65 -77.35,-328.57 -11.75,-621.66 150.53,-851.44 46.94,-66.46 102.18,-127.43 164.18,-182.62 152.93,-136.14 348.06,-236.1 569.05,-289.38 499.1,-120.29 938.33,32.25 1206.64,362.46l-949.67 1011.43c64.75,11.5 167.14,-5.42 242.63,-23.61 226.49,-54.6 353.43,-174.29 464.32,-305.63l379.61 341.65 115.27 103.77c-50.53,52.13 -102.29,100.04 -155.83,144.31 -218.47,180.68 -467.96,298.89 -798.08,378.47zm3589.47 1089.15l0 0 -776.5 -118.6 -206.28 -1368.5 -292.04 755.06 -437.62 -943.42 -4.71 0 -173.26 1092.9 -728.72 -126.72 102.18 -609.91c27.48,-25.67 54.72,-51.97 81.48,-79.58l235.75 -243.27 -228.67 -205.82 243.21 -1451.85 736.23 0 183.55 1004.85 206.84 -1164.96 525.91 0 218.54 1419.48c-278.19,316.74 -412.76,741.98 -319.85,1131.74 71.75,301.31 257.5,544.95 523.03,686.02 26.9,14.31 54.61,26.98 82.68,38.86l28.29 183.73zm777.43 -422.65l0 0c-188.56,71.03 -374.68,85.69 -541.59,52.85 -115.65,-22.73 -221.98,-68.35 -313.43,-134.18 -146.22,-105.22 -254.47,-261.72 -301.36,-458.64 -56.15,-235.52 -4.76,-487.88 121.84,-707.41 62.96,-109.2 144.53,-210.18 240.9,-296.94 106.87,-96.24 231.69,-175.08 369.46,-227.8 321.58,-121.15 637.71,-78.82 861.91,81.64 81.29,58.16 150.41,131.85 203.33,218.99 40.82,67.18 72.22,142.12 91.82,224.26 67.89,282.75 -13.38,586.39 -191.9,831.1 -76.05,104.24 -169.67,197.8 -277.12,274.42 -80.8,57.65 -169.26,105.82 -263.86,141.71zm1905.78 1148.92l0 0 -539.23 -161.25 -47.02 -1987.61 -271.31 1533.41 -588.42 -93.57 41.92 -442.09c384.17,-324.49 588.2,-836.27 476.77,-1300.32 -49.12,-205.78 -154.52,-384.39 -304.07,-520.96l49.39 -520.61 -222.11 -59.34 15.16 -278.09 1013.63 203.75 340.8 1616.33 349.15 -1448.97 771.1 170.66 -1085.75 3288.65z"/>
   <path fill="#1F5498" fill-rule="nonzero" d="M13889.98 3055.78c6.11,23.23 9.22,47.42 8.21,72.35 -6.13,150.61 -148.25,267.12 -317.46,260.25 -169.21,-6.87 -301.43,-134.54 -295.32,-285.13 5.76,-141.46 131.51,-252.81 286.99,-260.11 -29.84,-6.43 -60.62,-10.72 -92.35,-12.01 -282.74,-11.47 -514.03,188.97 -524.18,438.76 -10.79,265.88 203.49,484.41 481.94,495.74 282.74,11.47 514.05,-188.98 524.84,-454.85 3.75,-92.25 -23.28,-180.14 -72.68,-255z"/>
   <path fill="#1F5498" fill-rule="nonzero" d="M5305.46 3360.19c0,150.73 -137.28,272.92 -306.63,272.92 -169.36,0 -306.64,-122.19 -306.64,-272.92 0,-141.58 121.13,-257.94 276.17,-271.54 -30.06,-5.19 -60.97,-8.24 -92.73,-8.24 -282.99,0 -505.95,209.67 -505.95,459.66 0,266.12 222.96,475.77 501.66,475.77 282.96,0 505.96,-209.65 505.96,-475.77 0,-92.31 -30.57,-179.03 -82.98,-251.84 7.04,22.96 11.13,47.02 11.13,71.96z"/>
  </g>
  <path fill="#1F5498" fill-rule="nonzero" d="M8614.15 2850.9c-70.27,-127.66 -55.96,-290.94 47.6,-404.72 100.02,-109.89 253.77,-141.22 384.61,-91.06l-432.21 495.78zm47.6 -404.72l0 0c-103.56,113.78 -117.87,277.06 -47.6,404.72l432.21 -495.78c-130.84,-50.15 -284.6,-18.82 -384.61,91.06zm624.37 -165.47l0 0c-221.62,-201.71 -564.83,-185.57 -766.54,36.07 -201.68,221.63 -185.54,564.84 36.07,766.55 18.42,16.76 37.94,31.46 57.89,45.22l711.01 -809.15c-12.06,-13.38 -24.82,-26.31 -38.44,-38.69zm-671.97 570.18l0 0c-70.27,-127.66 -55.96,-290.94 47.6,-404.72 100.02,-109.89 253.77,-141.22 384.61,-91.06l-432.21 495.78z"/>
  <path fill="#1F5498" fill-rule="nonzero" d="M3290.02 2762.89c-55.25,-305.39 -452.7,-476.31 -850.01,-263.27l99.84 349.73 157.19 516.96 71.7 235.79c297.74,-189.24 597.77,-416.4 521.28,-839.21zm-395.44 466.28l0 0c-43,-141.41 -135.74,-446.41 -135.74,-446.41 0.49,1.65 -18.73,-65.69 -40.33,-141.37 84.21,-14.95 164.84,-7.36 231.17,24.67 36.91,17.83 100.97,59.4 115.09,137.57 31.76,175.52 -28.71,300.4 -170.2,425.54z"/>
  <g id="_1957894549280">
   <path fill="black" fill-rule="nonzero" d="M16113.88 5477.21l133.22 0 0 19.56 -55.33 0 0 144.63 -22.58 0 0 -144.63 -55.32 0 0 -19.56z"/>
   <path fill="black" fill-rule="nonzero" d="M16266.88 5641.4l0 -164.19 31.86 0 47.16 138.82 46.82 -138.82 31.52 0 0 164.19 -21.11 0 0 -96.91c0,-3.35 0.07,-8.9 0.22,-16.64 0.15,-7.76 0.23,-16.07 0.23,-24.94l-46.83 138.48 -22.02 0 -47.16 -138.48 0 5.04c0,4.03 0.09,10.16 0.28,18.38 0.18,8.24 0.27,14.29 0.27,18.16l0 96.91 -21.23 0z"/>
  </g>
 </g>
</svg>
