<?xml version="1.0" encoding="UTF-8"?>
<!DOCTYPE svg PUBLIC "-//W3C//DTD SVG 1.1//EN" "http://www.w3.org/Graphics/SVG/1.1/DTD/svg11.dtd">
<!-- Creator: CorelDRAW 2021 (64-Bit) -->
<svg xmlns="http://www.w3.org/2000/svg" xml:space="preserve" width="60%" height="60%" version="1.1" shape-rendering="geometricPrecision" text-rendering="geometricPrecision" image-rendering="optimizeQuality" fill-rule="evenodd" clip-rule="evenodd"
viewBox="0 0 4172.17 4172.17"
 xmlns:xlink="http://www.w3.org/1999/xlink"
 xmlns:xodm="http://www.corel.com/coreldraw/odm/2003">
 <g id="Capa_x0020_1">
  <metadata id="CorelCorpID_0Corel-Layer"/>
  <path fill="black" fill-rule="nonzero" d="M2086.09 1677.6c-112.81,0 -214.94,45.72 -288.85,119.63 -73.91,73.91 -119.63,176.05 -119.63,288.85 0,112.81 45.72,214.94 119.63,288.85 73.91,73.91 176.05,119.63 288.85,119.63 112.81,0 214.94,-45.72 288.85,-119.63 73.91,-73.91 119.63,-176.05 119.63,-288.85 0,-112.81 -45.72,-214.94 -119.63,-288.85 -73.91,-73.91 -176.05,-119.63 -288.85,-119.63zm571.64 323.82l1343.24 0c-21.55,-495.62 -231.26,-942.43 -559.52,-1270.69 -346.85,-346.85 -826.06,-561.4 -1355.36,-561.4 -529.3,0 -1008.5,214.54 -1355.36,561.4 -328.26,328.26 -537.98,775.07 -559.52,1270.69l1343.24 0c18.45,-125.66 77.35,-238.19 163.07,-323.91 104.57,-104.57 249.02,-169.24 408.58,-169.24 159.55,0 304.01,64.67 408.58,169.24 85.72,85.72 144.62,198.25 163.07,323.91zm1512.73 0l1.16 0 0 38.01c0.34,15.51 0.55,31.06 0.55,46.66 0,15.59 -0.21,31.14 -0.55,46.66l0 38.01 -1.16 0c-21.65,542.38 -250.37,1031.5 -609.29,1390.42 -377.5,377.5 -899.04,611 -1475.08,611 -576.04,0 -1097.58,-233.5 -1475.08,-611 -358.92,-358.92 -587.64,-848.05 -609.29,-1390.42l-1.71 0 0 -84.67 0 -84.67 1.71 0c21.65,-542.37 250.37,-1031.5 609.29,-1390.42 377.5,-377.5 899.04,-611 1475.08,-611 576.04,0 1097.58,233.5 1475.08,611 358.92,358.92 587.64,848.05 609.29,1390.42zm-169.49 169.33l-1343.24 0c-18.45,125.66 -77.35,238.19 -163.07,323.91 -104.57,104.57 -249.02,169.24 -408.58,169.24 -159.55,0 -304.01,-64.67 -408.58,-169.24 -85.72,-85.72 -144.62,-198.25 -163.07,-323.91l-1343.24 0c21.55,495.62 231.26,942.43 559.52,1270.69 346.85,346.85 826.06,561.4 1355.36,561.4 529.3,0 1008.5,-214.54 1355.36,-561.4 328.26,-328.26 537.98,-775.07 559.52,-1270.69z"/>
  <path fill="red" stroke="black" stroke-width="12" stroke-linecap="round" stroke-linejoin="round" stroke-miterlimit="22.9256" d="M2086.09 1508.27c159.55,0 304.01,64.67 408.58,169.24 85.72,85.72 144.62,198.25 163.07,323.91l1343.24 0c-21.55,-495.62 -231.26,-942.43 -559.52,-1270.69 -346.85,-346.85 -826.06,-561.4 -1355.36,-561.4 -529.3,0 -1008.5,214.54 -1355.36,561.4 -328.26,328.26 -537.98,775.07 -559.52,1270.69l1343.24 0c18.45,-125.66 77.35,-238.19 163.07,-323.91 104.57,-104.57 249.02,-169.24 408.58,-169.24z"/>
 </g>
</svg>
