<?xml version="1.0" encoding="UTF-8"?>
<!DOCTYPE svg PUBLIC "-//W3C//DTD SVG 1.1//EN" "http://www.w3.org/Graphics/SVG/1.1/DTD/svg11.dtd">
<!-- Creator: CorelDRAW 2021 (64-Bit) -->
<svg xmlns="http://www.w3.org/2000/svg" xml:space="preserve" width="100%" height="100%" version="1.1" style="shape-rendering:geometricPrecision; text-rendering:geometricPrecision; image-rendering:optimizeQuality; fill-rule:evenodd; clip-rule:evenodd"
viewBox="0 0 2996.06 918.92"
 xmlns:xlink="http://www.w3.org/1999/xlink"
 xmlns:xodm="http://www.corel.com/coreldraw/odm/2003">
 <defs>
  <style type="text/css">
   <![CDATA[
    .fil0 {fill:#282828}
   ]]>
  </style>
 </defs>
 <g id="Capa_x0020_1">
  <metadata id="CorelCorpID_0Corel-Layer"/>
  <path class="fil0" d="M2996.07 459.42c0,252.35 -207.09,459.5 -459.44,459.5 -252.39,0 -452.96,-207.15 -452.96,-459.5 0,-252.34 200.57,-459.42 452.96,-459.42 252.35,0 459.44,207.08 459.44,459.42l0 0zm-1041.83 0c0,252.35 -200.57,459.5 -452.97,459.5 -252.34,0 -459.44,-207.15 -459.44,-459.5 0,-252.34 207.1,-459.42 459.44,-459.42 252.4,0 452.97,207.08 452.97,459.42l0 0zm582.39 -297.63c168.22,0 297.64,135.9 297.64,297.63 0,161.74 -129.42,297.64 -297.64,297.64 -161.78,0 -291.17,-135.9 -291.17,-297.64 0,-161.73 129.39,-297.63 291.17,-297.63l0 0zm-1035.36 0c161.79,0 291.18,135.9 291.18,297.63 0,161.74 -129.39,297.64 -291.18,297.64 -168.26,0 -297.65,-135.9 -297.65,-297.64 0,-161.73 129.39,-297.63 297.65,-297.63l0 0zm-1041.82 0c161.78,0 297.63,135.9 297.63,297.63 0,161.74 -135.85,297.64 -297.63,297.64 -161.8,0 -297.65,-135.9 -297.65,-297.64 0,-161.73 135.85,-297.63 297.65,-297.63l0 0zm459.42 297.63c0,252.35 -207.04,459.5 -459.42,459.5 -252.4,0 -459.44,-207.15 -459.44,-459.5 0,-252.34 207.04,-459.42 459.44,-459.42 252.38,0 459.42,207.08 459.42,459.42l0 0z"/>
 </g>
</svg>
