<?xml version="1.0" encoding="UTF-8"?>
<!DOCTYPE svg PUBLIC "-//W3C//DTD SVG 1.1//EN" "http://www.w3.org/Graphics/SVG/1.1/DTD/svg11.dtd">
<!-- Creator: CorelDRAW 2021 (64-Bit) -->
<svg xmlns="http://www.w3.org/2000/svg" xml:space="preserve" width="100%" height="100%" version="1.1" style="shape-rendering:geometricPrecision; text-rendering:geometricPrecision; image-rendering:optimizeQuality; fill-rule:evenodd; clip-rule:evenodd"
viewBox="0 0 2860.21 2860.15"
 xmlns:xlink="http://www.w3.org/1999/xlink"
 xmlns:xodm="http://www.corel.com/coreldraw/odm/2003">
 <defs>
  <style type="text/css">
   <![CDATA[
    .fil0 {fill:#282828}
    .fil1 {fill:black}
    .fil3 {fill:#E5FAFF}
    .fil2 {fill:#E5FAFF}
   ]]>
  </style>
 </defs>
 <g id="Capa_x0020_1">
  <metadata id="CorelCorpID_0Corel-Layer"/>
  <path class="fil0" d="M1430.13 161.79c698.83,0 1268.29,569.39 1268.29,1268.28 0,698.89 -569.46,1268.34 -1268.29,1268.34 -698.88,0 -1268.34,-569.45 -1268.34,-1268.34 0,-698.89 569.46,-1268.28 1268.34,-1268.28l0 0zm0 -161.79c789.44,0 1430.09,640.63 1430.09,1430.07 0,789.5 -640.65,1430.08 -1430.09,1430.08 -789.49,0 -1430.13,-640.58 -1430.13,-1430.08 0,-789.44 640.64,-1430.07 1430.13,-1430.07l0 0z"/>
  <path class="fil1" d="M1430.13 494.78c513.64,0 935.29,421.64 935.29,935.28 0,513.71 -421.65,935.36 -935.29,935.36 -513.71,0 -935.34,-421.65 -935.34,-935.36 0,-513.64 421.63,-935.28 935.34,-935.28l0 0zm0 -191.69c620.93,0 1126.97,505.99 1126.97,1126.97 0,621.06 -506.04,1127.04 -1126.97,1127.04 -620.98,0 -1127.02,-505.98 -1127.02,-1127.04 0,-620.98 506.04,-1126.97 1127.02,-1126.97l0 0z"/>
  <path class="fil2" d="M2365.42 1430.06c-321.18,643.22 -853.04,863.33 -1595.59,660.33 169.62,169.62 403.45,275.03 660.3,275.03 513.65,0 935.29,-421.64 935.29,-935.36z"/>
  <ellipse class="fil3" transform="matrix(1.45223 -0.49818 0.274113 0.799059 1237.42 802.447)" rx="157.77" ry="222.86"/>
 </g>
</svg>
